<svg width="23" height="27" viewBox="0 0 23 27" fill="none" xmlns="http://www.w3.org/2000/svg">
<path d="M8.30217 0.0852883C7.90313 0.222406 7.59831 0.433357 7.3988 0.718141C7.11614 1.12422 7.06627 1.38264 7.06627 2.42157V3.3603L4.20096 3.37612L1.33012 3.39195L1.01976 3.52906C0.626265 3.7031 0.326988 3.98788 0.144096 4.36232C0 4.65238 0 4.6682 0 5.89699C0 7.12578 0 7.1416 0.144096 7.43166C0.399036 7.94849 0.925542 8.32293 1.50747 8.40731L1.74578 8.43895V16.2019C1.74578 24.8668 1.72361 24.3341 2.14482 25.141C2.59928 26.0164 3.5359 26.7073 4.55012 26.913C5.12096 27.029 17.879 27.029 18.4499 26.913C19.4641 26.7073 20.4007 26.0164 20.8552 25.141C21.2764 24.3341 21.2542 24.8668 21.2542 16.2019V8.43895L21.4925 8.40731C22.0745 8.32293 22.601 7.94849 22.8559 7.43166C23 7.1416 23 7.12578 23 5.89699C23 4.6682 23 4.65238 22.8559 4.36232C22.673 3.98788 22.3737 3.7031 21.9802 3.52906L21.6699 3.39195L18.8046 3.37612L15.9393 3.3603L15.9227 2.32137C15.906 1.3299 15.9005 1.27189 15.7619 0.987104C15.579 0.612666 15.2798 0.327882 14.8863 0.153847L14.5759 0.0167292L11.5831 0.00618165C8.81759 -0.00963967 8.56819 0.000907876 8.30217 0.0852883ZM13.7501 1.81509C14.0827 2.04713 14.1325 2.16843 14.1492 2.79073L14.1713 3.36558H11.5055H8.83976V2.86984C8.83976 2.33192 8.88964 2.14733 9.07807 1.94693C9.33301 1.68324 9.38843 1.67797 11.5665 1.69379C13.5229 1.70434 13.606 1.70961 13.7501 1.81509ZM20.8441 5.1903C21.1378 5.39598 21.2265 5.56474 21.2265 5.89699C21.2265 6.22924 21.1378 6.398 20.8441 6.60367C20.6945 6.71442 20.6834 6.71442 11.6219 6.73025C5.36482 6.74079 2.48843 6.73025 2.34434 6.68805C1.78458 6.53512 1.56843 5.80206 1.95084 5.36434C2.24458 5.03736 1.60723 5.05318 11.5665 5.06901C20.6889 5.07955 20.6945 5.07955 20.8441 5.1903ZM19.4696 16.2178L19.453 24.0124L19.3089 24.3077C19.126 24.6822 18.8267 24.967 18.4333 25.141L18.1229 25.2781H11.5H4.87711L4.56675 25.141C4.17325 24.967 3.87398 24.6822 3.69108 24.3077L3.54699 24.0124L3.53036 16.2178L3.51928 8.4284H11.5H19.4807L19.4696 16.2178Z" fill="black"/>
<path d="M6.70603 11.8774C6.4788 11.9724 6.24603 12.2413 6.20723 12.4523C6.19061 12.5472 6.18507 14.9732 6.19061 17.8526C6.20723 23.042 6.20723 23.0842 6.32362 23.2266C6.53976 23.5061 6.71711 23.5905 7.06627 23.5905C7.41543 23.5905 7.59278 23.5061 7.80892 23.2266C7.92531 23.0842 7.92531 23.0526 7.92531 17.7102C7.92531 12.3679 7.92531 12.3363 7.80892 12.1939C7.74796 12.1148 7.63157 11.9987 7.55398 11.946C7.37109 11.8142 6.92772 11.7772 6.70603 11.8774Z" fill="black"/>
<path d="M11.1398 11.8774C10.9125 11.9724 10.6798 12.2413 10.641 12.4523C10.6243 12.5472 10.6188 14.9732 10.6243 17.8526C10.641 23.042 10.641 23.0842 10.7574 23.2266C10.9735 23.5061 11.1509 23.5905 11.5 23.5905C11.8492 23.5905 12.0265 23.5061 12.2427 23.2266C12.359 23.0842 12.359 23.0526 12.359 17.7102C12.359 12.3679 12.359 12.3363 12.2427 12.1939C12.1817 12.1148 12.0653 11.9987 11.9877 11.946C11.8048 11.8142 11.3615 11.7772 11.1398 11.8774Z" fill="black"/>
<path d="M15.568 11.8774C15.4737 11.9196 15.3241 12.0409 15.2354 12.1517L15.0747 12.3468V17.7155C15.0747 23.0526 15.0747 23.0842 15.1911 23.2266C15.4072 23.5061 15.5846 23.5905 15.9337 23.5905C16.2829 23.5905 16.4602 23.5061 16.6764 23.2266C16.7928 23.0842 16.7928 23.0526 16.7928 17.7102C16.7928 12.3679 16.7928 12.3363 16.6764 12.1939C16.6154 12.1148 16.499 11.9987 16.4215 11.946C16.233 11.8142 15.7952 11.7772 15.568 11.8774Z" fill="black"/>
</svg>
